<svg width="33" height="25" viewBox="0 0 33 25" fill="none" xmlns="http://www.w3.org/2000/svg">
<path d="M31.2656 19.5234H1.73438C1.19297 19.5234 0.75 19.9664 0.75 20.5078C0.75 21.0492 1.19297 21.4922 1.73438 21.4922H31.2656C31.807 21.4922 32.25 21.0492 32.25 20.5078C32.25 19.9664 31.807 19.5234 31.2656 19.5234Z" fill="#E47B7A"/>
<path d="M31.2656 22.8984H1.73438C1.19297 22.8984 0.75 23.3414 0.75 23.8828C0.75 24.4242 1.19297 24.8672 1.73438 24.8672H31.2656C31.807 24.8672 32.25 24.4242 32.25 23.8828C32.25 23.3414 31.807 22.8984 31.2656 22.8984Z" fill="#E47B7A"/>
<path d="M29.782 0.132812H3.21797C1.86094 0.132812 0.75 1.24375 0.75 2.60078V15.1023C0.75 16.4594 1.86094 17.5703 3.21797 17.5703H29.782C31.1391 17.5703 32.25 16.4594 32.25 15.1023V2.60078C32.25 1.24375 31.1391 0.132812 29.782 0.132812ZM6.51562 15.3203H3.98438C3.44297 15.3203 3 14.8773 3 14.3359C3 13.7945 3.44297 13.3516 3.98438 13.3516H6.51562C7.05703 13.3516 7.5 13.7945 7.5 14.3359C7.5 14.8773 7.05703 15.3203 6.51562 15.3203ZM6.51562 4.35156H3.98438C3.44297 4.35156 3 3.90859 3 3.36719C3 2.82578 3.44297 2.38281 3.98438 2.38281H6.51562C7.05703 2.38281 7.5 2.82578 7.5 3.36719C7.5 3.90859 7.05703 4.35156 6.51562 4.35156ZM16.5 14.4766C13.3992 14.4766 10.875 11.9523 10.875 8.85156C10.875 5.75078 13.3992 3.22656 16.5 3.22656C19.6008 3.22656 22.125 5.75078 22.125 8.85156C22.125 11.9523 19.6008 14.4766 16.5 14.4766ZM29.0156 15.3203H26.4844C25.943 15.3203 25.5 14.8773 25.5 14.3359C25.5 13.7945 25.943 13.3516 26.4844 13.3516H29.0156C29.557 13.3516 30 13.7945 30 14.3359C30 14.8773 29.557 15.3203 29.0156 15.3203ZM29.0156 4.35156H26.4844C25.943 4.35156 25.5 3.90859 25.5 3.36719C25.5 2.82578 25.943 2.38281 26.4844 2.38281H29.0156C29.557 2.38281 30 2.82578 30 3.36719C30 3.90859 29.557 4.35156 29.0156 4.35156Z" fill="#E47B7A"/>
<path d="M20.2266 8.98438C20.2266 11.0425 18.5581 12.7109 16.5 12.7109C14.4419 12.7109 12.7734 11.0425 12.7734 8.98438C12.7734 6.92625 14.4419 5.25781 16.5 5.25781C18.5581 5.25781 20.2266 6.92625 20.2266 8.98438Z" fill="#E47B7A"/>
</svg>
