<svg width="37" height="36" viewBox="0 0 37 36" fill="none" xmlns="http://www.w3.org/2000/svg">
<path d="M35.885 5.21281C35.1117 3.08624 33.4366 1.41113 31.31 0.637812C29.345 0.0078125 27.56 0.0078125 23.93 0.0078125H13.04C9.44 0.0078125 7.625 0.0078125 5.69 0.607813C3.56025 1.38439 1.8846 3.06553 1.115 5.19781C0.5 7.14781 0.5 8.94781 0.5 12.5478V23.4528C0.5 27.0678 0.5 28.8528 1.1 30.8028C1.87332 32.9294 3.54843 34.6045 5.675 35.3778C7.625 35.9928 9.425 35.9928 13.025 35.9928H23.945C27.56 35.9928 29.36 35.9928 31.295 35.3928C33.4305 34.62 35.1121 32.9383 35.885 30.8028C36.5 28.8528 36.5 27.0528 36.5 23.4528V12.5778C36.5 8.96281 36.5 7.16281 35.885 5.21281ZM26.63 12.1578L25.235 13.5528C24.9534 13.8148 24.5193 13.8212 24.23 13.5678C22.879 12.4269 21.1683 11.8 19.4 11.7978C17.945 11.7978 16.49 12.2778 16.49 13.6128C16.49 14.9628 18.05 15.4128 19.85 16.0878C23 17.1378 25.61 18.4578 25.61 21.5478C25.61 24.9078 23 27.2178 18.74 27.4728L18.35 29.2728C18.2789 29.6138 17.9783 29.858 17.63 29.8578L14.945 29.8578L14.81 29.8428C14.4101 29.7531 14.1563 29.359 14.24 28.9578L14.66 27.0528C13.0433 26.6475 11.5566 25.837 10.34 24.6978L10.34 24.6828C10.2044 24.5477 10.1282 24.3642 10.1282 24.1728C10.1282 23.9814 10.2044 23.7979 10.34 23.6628L11.84 22.2078C12.1227 21.943 12.5623 21.943 12.845 22.2078C14.21 23.4978 16.04 24.2178 17.93 24.1878C19.88 24.1878 21.185 23.3628 21.185 22.0578C21.185 20.7528 19.865 20.4078 17.375 19.4778C14.735 18.5328 12.23 17.1978 12.23 14.0778C12.23 10.4478 15.245 8.67781 18.815 8.51281L19.19 6.66781C19.262 6.32955 19.5643 6.09024 19.91 6.09781L22.58 6.09781L22.73 6.11281C23.12 6.20281 23.375 6.57781 23.285 6.96781L22.88 9.02281C24.23 9.47281 25.505 10.1778 26.6 11.1078L26.63 11.1378C26.915 11.4378 26.915 11.8878 26.63 12.1578Z" fill="#6071C4"/>
</svg>
