<?xml version="1.0" standalone="no"?>
<!DOCTYPE svg PUBLIC "-//W3C//DTD SVG 20010904//EN"
 "http://www.w3.org/TR/2001/REC-SVG-20010904/DTD/svg10.dtd">
<svg version="1.0" xmlns="http://www.w3.org/2000/svg"
 width="1770.000000pt" height="1770.000000pt" viewBox="0 0 1770.000000 1770.000000"
 preserveAspectRatio="xMidYMid meet">
<metadata>
Created by potrace 1.14, written by Peter Selinger 2001-2017
</metadata>
<g transform="translate(0.000000,1770.000000) scale(0.100000,-0.100000)"
fill="#000000" stroke="none">
<path d="M2975 12009 c-16 -5 -44 -11 -63 -14 -18 -3 -49 -12 -70 -21 -20 -8
-39 -15 -42 -15 -3 0 -31 -15 -64 -32 -70 -37 -196 -157 -196 -186 0 -5 -3
-11 -7 -13 -17 -7 -114 -228 -112 -253 0 -3 -5 -31 -12 -63 -26 -118 -30 -151
-44 -332 -4 -52 -9 -788 -10 -1635 -1 -847 -4 -1551 -8 -1565 -3 -14 -9 -47
-12 -73 -16 -131 -85 -305 -147 -367 -42 -42 -117 -90 -140 -90 -10 0 -18 -4
-18 -8 0 -9 -19 -11 -105 -12 -81 -2 -118 6 -176 36 -80 40 -130 86 -186 173
-50 76 -111 220 -128 304 -13 60 -62 202 -96 274 -59 128 -126 216 -225 293
-26 20 -132 69 -154 72 -3 0 -16 5 -30 10 -55 21 -227 28 -329 15 -53 -7 -201
-53 -211 -66 -3 -3 -25 -19 -50 -35 -53 -33 -131 -113 -168 -170 -63 -99 -126
-269 -138 -373 -3 -26 -7 -50 -9 -53 -19 -30 -27 -487 -13 -625 4 -33 8 -60 8
-60 1 0 3 -13 5 -30 2 -16 6 -39 9 -51 3 -12 8 -37 11 -57 4 -20 17 -76 31
-124 14 -48 27 -95 29 -103 13 -52 95 -231 143 -312 45 -78 138 -199 204 -268
57 -59 210 -190 221 -190 3 0 29 -16 57 -35 109 -73 393 -190 510 -210 19 -3
51 -10 70 -15 19 -5 53 -12 75 -15 22 -3 56 -8 75 -11 123 -20 301 -27 665
-27 449 1 489 4 712 49 12 2 35 9 50 15 16 6 28 9 28 8 0 -4 75 21 145 48 93
36 283 141 310 172 3 4 22 18 42 34 75 56 185 173 260 277 26 36 51 70 55 76
11 14 25 39 72 126 75 142 161 372 197 528 10 44 34 159 38 185 3 17 8 40 10
51 7 32 14 83 21 139 3 28 9 68 12 90 3 22 7 63 8 90 1 28 6 95 11 150 9 125
10 3287 0 3410 -4 50 -10 101 -12 115 -6 31 -13 74 -19 120 -3 19 -9 50 -14
68 -5 18 -11 36 -12 40 -1 4 -3 12 -4 17 -16 59 -63 175 -93 226 -35 60 -117
152 -172 192 -44 32 -133 69 -225 92 -81 21 -113 23 -315 23 -124 0 -238 -4
-255 -9z"/>
<path d="M4990 12005 c-76 -15 -141 -34 -155 -45 -5 -4 -21 -11 -35 -15 -67
-21 -187 -130 -242 -221 -38 -62 -90 -184 -104 -244 -4 -19 -8 -37 -9 -40 -27
-112 -39 -203 -50 -355 -7 -104 -8 -4390 -1 -4480 3 -33 7 -76 10 -95 2 -19 7
-60 11 -90 4 -30 11 -75 17 -100 5 -25 12 -56 14 -69 9 -44 45 -145 76 -211
88 -184 245 -305 453 -345 80 -15 238 -17 1425 -19 1002 -1 1289 1 1340 11 86
17 88 18 96 26 4 4 16 7 26 7 10 0 18 5 18 10 0 6 6 10 13 10 43 0 183 128
246 223 30 48 91 168 96 192 1 6 7 30 14 55 42 145 46 376 11 525 -6 28 -13
57 -15 65 -6 28 -36 105 -57 150 -61 130 -165 237 -287 298 -46 23 -94 42
-107 42 -12 0 -25 4 -28 9 -3 5 -290 9 -662 10 -440 0 -669 4 -696 12 -23 6
-57 21 -77 34 -39 24 -111 94 -111 106 0 4 -6 14 -14 21 -17 18 -52 118 -64
184 -11 64 -8 123 12 212 11 48 20 68 53 121 40 62 59 80 126 120 57 34 -2 31
782 34 590 2 601 3 658 24 180 68 293 203 353 424 21 77 29 158 27 279 -3 202
-72 380 -197 505 -93 93 -173 134 -296 150 -3 0 -10 4 -17 8 -6 4 -14 4 -16 0
-4 -6 -207 -8 -362 -3 -5 0 -64 -1 -130 -2 -67 -1 -126 1 -132 5 -6 4 -14 4
-16 0 -5 -8 -455 -8 -552 0 -157 12 -285 176 -299 381 -7 108 35 251 95 328
46 58 64 73 133 108 l58 29 637 1 c350 0 646 2 657 4 12 3 38 7 58 10 69 11
163 57 239 116 72 56 183 215 185 264 0 5 4 12 9 15 18 12 58 165 70 268 30
262 -24 507 -152 688 -79 112 -219 220 -310 240 -11 2 -36 9 -55 14 -54 17
-2685 13 -2770 -4z"/>
<path d="M9257 11994 c-1 -2 -27 -5 -58 -8 -31 -3 -68 -10 -82 -15 -15 -6 -27
-9 -27 -6 0 14 -178 -72 -206 -100 -7 -6 -25 -22 -41 -36 -15 -13 -44 -44 -63
-69 -19 -25 -37 -47 -40 -50 -23 -23 -96 -204 -115 -285 -1 -5 -5 -21 -9 -35
-3 -14 -8 -41 -10 -60 -3 -19 -5 -35 -6 -35 -5 0 -16 -108 -26 -245 -10 -124
-10 -4306 -1 -4475 4 -71 10 -146 12 -165 3 -19 7 -53 10 -75 5 -38 10 -67 20
-110 30 -131 88 -259 149 -328 14 -16 26 -32 28 -35 6 -14 128 -114 128 -105
0 4 4 3 8 -3 12 -18 133 -62 197 -71 70 -9 166 -9 248 1 198 24 376 172 463
386 29 73 61 192 69 265 13 114 15 135 21 240 3 61 7 586 7 1168 1 581 2 1057
3 1057 2 0 16 -28 33 -62 16 -35 55 -117 86 -183 97 -203 134 -285 132 -289
-1 -2 7 -13 17 -25 11 -12 17 -21 13 -21 -3 0 8 -27 24 -60 16 -33 29 -65 29
-70 0 -6 4 -10 10 -10 5 0 9 -3 8 -7 -2 -8 17 -50 104 -233 22 -47 65 -137 94
-200 30 -63 61 -128 69 -143 8 -16 15 -35 15 -43 0 -8 5 -14 10 -14 6 0 10 -5
10 -10 0 -6 25 -63 56 -128 31 -64 72 -151 91 -192 19 -41 55 -115 78 -165 24
-49 54 -115 68 -145 14 -30 59 -125 100 -210 40 -85 87 -184 103 -220 15 -36
32 -66 36 -68 4 -2 8 -9 8 -16 0 -7 13 -38 29 -69 16 -31 27 -57 25 -57 -2 0
10 -23 26 -50 17 -28 30 -53 30 -56 0 -2 12 -23 28 -47 127 -195 288 -300 494
-324 73 -8 416 -8 514 1 92 8 102 9 164 27 25 7 50 13 56 15 6 1 42 17 79 35
72 36 187 140 215 194 8 17 17 32 20 35 17 15 83 193 96 255 38 191 44 250 49
542 2 123 7 227 10 233 3 5 3 10 -2 10 -7 0 -9 373 -3 405 1 6 1 15 0 20 -6
26 -2 514 4 524 4 6 4 11 -1 11 -7 0 -9 373 -3 405 1 6 1 15 0 20 -6 26 -2
514 4 524 4 6 4 11 -1 11 -7 0 -9 373 -3 405 1 6 1 15 0 20 -6 26 -2 514 4
524 4 6 4 11 -1 11 -7 0 -9 373 -3 405 1 6 1 15 0 20 -2 8 -1 432 0 485 3 87
-13 402 -25 485 -3 22 -8 58 -11 80 -3 22 -14 70 -24 107 -16 60 -25 83 -63
168 -12 27 -61 102 -87 133 -54 67 -185 161 -240 173 -14 3 -32 8 -40 11 -32
13 -49 14 -148 17 -124 4 -191 -10 -290 -60 -68 -34 -202 -150 -202 -174 0 -5
-6 -15 -14 -23 -33 -33 -108 -211 -121 -289 -3 -18 -8 -40 -10 -48 -7 -26 -25
-191 -31 -275 -1 -27 -4 -438 -4 -913 -1 -499 -6 -864 -11 -868 -5 -3 -9 0 -9
6 0 6 -20 53 -44 103 -25 51 -44 94 -44 97 0 3 -14 29 -31 58 -17 29 -31 55
-31 57 0 2 -65 138 -145 301 -80 162 -145 300 -145 305 0 5 -4 9 -10 9 -5 0
-10 5 -10 12 0 6 -37 86 -82 177 -44 91 -143 292 -218 446 -352 718 -383 781
-410 805 -3 3 -16 19 -28 37 -57 82 -155 158 -248 192 -30 12 -61 21 -68 21
-7 0 -16 3 -20 8 -4 4 -20 8 -34 10 -34 3 -802 9 -805 6z"/>
<path d="M14597 11994 c-1 -1 -31 -4 -67 -8 -36 -3 -76 -8 -90 -11 -14 -3 -38
-8 -55 -11 -44 -8 -118 -25 -135 -31 -8 -3 -22 -8 -30 -10 -24 -6 -33 -9 -63
-21 -16 -7 -31 -12 -33 -12 -12 0 -189 -85 -192 -92 -2 -5 -8 -8 -13 -8 -8 0
-62 -32 -104 -62 -84 -60 -215 -182 -266 -249 -13 -17 -31 -38 -39 -47 -80
-86 -212 -375 -236 -520 -2 -12 -9 -49 -14 -82 -9 -51 -23 -211 -21 -245 8
-174 18 -245 51 -376 71 -278 254 -553 481 -722 88 -65 105 -77 141 -98 62
-35 198 -99 211 -99 7 0 17 -4 22 -8 22 -18 209 -69 290 -78 28 -4 53 -8 57
-11 4 -2 60 -6 125 -9 139 -7 119 -7 216 0 132 10 207 21 317 47 404 94 697
314 794 596 100 288 4 537 -234 606 -71 21 -245 17 -310 -7 -25 -10 -49 -18
-55 -20 -37 -11 -90 -43 -156 -93 -195 -148 -228 -173 -232 -173 -3 0 -22 -8
-43 -17 -22 -9 -43 -18 -49 -19 -231 -58 -374 23 -440 250 -13 48 -24 90 -24
94 1 4 1 9 0 12 -1 3 -5 38 -7 78 -4 55 -2 72 8 72 7 0 315 2 683 4 619 2 674
4 720 21 104 38 167 104 191 201 10 38 10 260 1 304 -24 114 -81 245 -144 334
-50 70 -50 70 -131 151 -152 152 -372 270 -607 325 -78 19 -94 22 -185 36 -40
6 -327 13 -333 8z m182 -750 c77 -48 135 -158 144 -273 l2 -23 -235 0 c-129 0
-245 1 -257 1 -21 1 -22 5 -17 39 23 148 110 262 214 279 13 2 26 6 28 7 7 7
98 -15 121 -30z"/>
<path d="M16995 11989 c-16 -5 -41 -10 -55 -13 -45 -7 -146 -51 -168 -73 -7
-7 -17 -13 -22 -13 -8 0 -135 -124 -155 -151 -25 -34 -74 -138 -85 -179 -18
-65 -22 -96 -22 -180 -1 -217 123 -420 324 -528 48 -27 77 -37 158 -59 43 -12
207 -9 254 4 28 8 58 16 66 17 54 10 158 75 227 143 41 39 123 150 123 166 0
3 7 21 15 41 8 20 15 38 16 41 0 3 6 24 12 47 7 24 14 80 16 124 8 228 -122
445 -329 552 -43 22 -91 43 -108 45 -17 3 -36 8 -41 12 -17 10 -192 13 -226 4z"/>
<path d="M17005 9438 c-22 -4 -53 -11 -70 -14 -59 -12 -171 -72 -235 -126 -58
-49 -166 -193 -158 -209 2 -3 -2 -12 -8 -20 -19 -23 -46 -147 -48 -218 -5
-160 63 -329 176 -438 71 -68 82 -77 108 -90 14 -7 32 -17 40 -22 150 -93 434
-91 574 4 20 13 36 22 36 20 0 -7 47 32 107 90 29 28 53 56 53 63 0 6 3 12 8
12 11 0 57 88 83 160 19 53 23 85 23 175 1 61 -2 123 -6 138 -30 126 -91 232
-182 319 -61 58 -183 127 -252 142 -16 4 -40 9 -54 12 -45 9 -154 11 -195 2z"/>
<path d="M14560 8478 c-160 -18 -201 -26 -330 -65 -63 -19 -136 -45 -162 -58
-27 -13 -48 -22 -48 -20 0 9 -204 -116 -254 -155 -66 -52 -169 -151 -211 -203
-70 -85 -86 -107 -79 -107 5 0 4 -4 -2 -8 -18 -12 -82 -126 -112 -198 -33 -77
-45 -107 -47 -114 -29 -92 -38 -129 -50 -205 -1 -5 -3 -12 -4 -15 -17 -36 -21
-360 -5 -465 17 -110 33 -181 51 -217 7 -16 11 -28 8 -28 -13 0 79 -203 127
-280 42 -68 49 -78 98 -139 154 -193 381 -354 615 -436 28 -9 59 -21 70 -25
11 -5 34 -11 50 -15 17 -3 50 -10 75 -16 160 -36 439 -50 580 -29 30 5 71 11
90 13 19 3 58 10 85 16 165 35 285 78 424 153 229 123 396 323 436 523 5 22
10 47 12 55 10 38 7 151 -5 205 -14 61 -34 105 -64 139 -10 11 -18 23 -18 27
0 15 -97 80 -149 99 -44 17 -152 33 -206 32 -75 -3 -275 -71 -275 -93 0 -5 -6
-9 -12 -9 -11 0 -99 -64 -149 -108 -120 -105 -252 -161 -369 -156 -107 4 -142
18 -207 83 -35 35 -81 113 -87 146 -1 6 -7 26 -13 45 -16 48 -25 113 -27 188
l-1 64 659 0 c721 1 739 2 826 58 25 16 55 44 67 62 26 39 56 108 47 108 -4 0
-2 6 4 13 12 13 10 239 -2 292 -63 287 -267 535 -559 683 -51 26 -106 52 -122
58 -17 7 -39 15 -50 19 -11 5 -22 9 -25 10 -3 0 -21 6 -40 13 -19 6 -47 13
-62 16 -15 3 -32 7 -37 10 -5 4 -22 8 -38 10 -15 2 -66 9 -113 16 -98 14 -296
19 -390 8z m191 -732 c70 -30 120 -92 152 -191 24 -74 29 -112 14 -117 -6 -2
-122 -3 -257 -3 -244 1 -245 1 -246 23 -2 34 44 166 66 190 11 12 20 25 20 29
1 9 78 68 90 68 5 0 12 3 16 8 13 12 110 8 145 -7z"/>
<path d="M17079 6895 c-3 -2 -27 -5 -54 -6 -61 -3 -167 -39 -244 -84 -53 -31
-181 -148 -181 -165 0 -4 -9 -17 -20 -30 -11 -13 -20 -29 -20 -37 0 -7 -3 -13
-8 -13 -6 0 -49 -121 -59 -170 -6 -27 -6 -184 0 -210 13 -57 16 -67 31 -108
18 -49 48 -105 59 -110 4 -2 7 -8 7 -13 0 -9 18 -31 70 -88 37 -41 134 -111
153 -111 10 0 17 -4 17 -10 0 -7 73 -34 125 -46 120 -27 230 -20 341 20 67 25
174 85 174 98 0 4 6 8 13 9 21 1 116 121 153 194 19 39 41 98 49 130 20 84 13
253 -13 325 -22 62 -76 165 -97 186 -7 8 -22 24 -32 37 -48 59 -176 143 -253
166 -25 7 -56 17 -70 21 -14 4 -47 9 -74 10 -28 0 -53 3 -56 5 -4 3 -9 3 -11
0z"/>
</g>
</svg>
