<svg width="37" height="37" viewBox="0 0 37 37" fill="none" xmlns="http://www.w3.org/2000/svg">
<path d="M35.885 5.71281C35.1117 3.58624 33.4366 1.91113 31.31 1.13781C29.345 0.507812 27.56 0.507812 23.93 0.507812H13.04C9.44 0.507812 7.625 0.507812 5.69 1.10781C3.56025 1.88439 1.8846 3.56553 1.115 5.69781C0.5 7.64781 0.5 9.44781 0.5 13.0478V23.9528C0.5 27.5678 0.5 29.3528 1.1 31.3028C1.87332 33.4294 3.54843 35.1045 5.675 35.8778C7.625 36.4928 9.425 36.4928 13.025 36.4928H23.945C27.56 36.4928 29.36 36.4928 31.295 35.8928C33.4305 35.12 35.1121 33.4383 35.885 31.3028C36.5 29.3528 36.5 27.5528 36.5 23.9528V13.0778C36.5 9.46281 36.5 7.66281 35.885 5.71281ZM26.63 12.6578L25.235 14.0528C24.9534 14.3148 24.5193 14.3212 24.23 14.0678C22.879 12.9269 21.1683 12.3 19.4 12.2978C17.945 12.2978 16.49 12.7778 16.49 14.1128C16.49 15.4628 18.05 15.9128 19.85 16.5878C23 17.6378 25.61 18.9578 25.61 22.0478C25.61 25.4078 23 27.7178 18.74 27.9728L18.35 29.7728C18.2789 30.1138 17.9783 30.358 17.63 30.3578L14.945 30.3578L14.81 30.3428C14.4101 30.2531 14.1563 29.859 14.24 29.4578L14.66 27.5528C13.0433 27.1475 11.5566 26.337 10.34 25.1978L10.34 25.1828C10.2044 25.0477 10.1282 24.8642 10.1282 24.6728C10.1282 24.4814 10.2044 24.2979 10.34 24.1628L11.84 22.7078C12.1227 22.443 12.5623 22.443 12.845 22.7078C14.21 23.9978 16.04 24.7178 17.93 24.6878C19.88 24.6878 21.185 23.8628 21.185 22.5578C21.185 21.2528 19.865 20.9078 17.375 19.9778C14.735 19.0328 12.23 17.6978 12.23 14.5778C12.23 10.9478 15.245 9.17781 18.815 9.01281L19.19 7.16781C19.262 6.82955 19.5643 6.59024 19.91 6.59781L22.58 6.59781L22.73 6.61281C23.12 6.70281 23.375 7.07781 23.285 7.46781L22.88 9.52281C24.23 9.97281 25.505 10.6778 26.6 11.6078L26.63 11.6378C26.915 11.9378 26.915 12.3878 26.63 12.6578Z" fill="#6071C4"/>
</svg>
