<svg width="51" height="50" viewBox="0 0 51 50" fill="none" xmlns="http://www.w3.org/2000/svg">
<path opacity="0.89327" d="M25.5 0.210938C11.8064 0.210938 0.710938 11.3064 0.710938 25C0.710938 38.6936 11.8064 49.7891 25.5 49.7891C39.1936 49.7891 50.2891 38.6936 50.2891 25C50.2891 11.3064 39.1936 0.210938 25.5 0.210938ZM27.1685 27.1452C27.1685 28.0629 26.4177 28.8137 25.5 28.8137H14.0589C13.1412 28.8137 12.3904 28.0629 12.3904 27.1452C12.3904 26.2275 13.1412 25.4767 14.0589 25.4767H23.8315V9.74519C23.8315 8.82752 24.5823 8.0767 25.5 8.0767C26.4177 8.0767 27.1685 8.82752 27.1685 9.74519V27.1452Z" fill="#4F5EAB"/>
</svg>
