<?xml version="1.0" encoding="UTF-8"?>
<svg id="Layer_1" data-name="Layer 1" xmlns="http://www.w3.org/2000/svg" xmlns:xlink="http://www.w3.org/1999/xlink" viewBox="0 0 884.76 350.04">
  <defs>
    <style>
      .cls-1 {
        fill: url(#linear-gradient-2);
      }

      .cls-2 {
        fill: url(#linear-gradient-3);
      }

      .cls-3 {
        fill: url(#linear-gradient);
      }

      .cls-4 {
        fill: #231f20;
      }

      .cls-5 {
        fill: url(#linear-gradient-4);
      }
    </style>
    <linearGradient id="linear-gradient" x1="303.11" y1="154.88" x2="597.51" y2="154.88" gradientUnits="userSpaceOnUse">
      <stop offset="0" stop-color="#ef3b39"/>
      <stop offset=".46" stop-color="#734e9f"/>
      <stop offset="1" stop-color="#26a7df"/>
    </linearGradient>
    <linearGradient id="linear-gradient-2" x1="303.12" y1="30.73" x2="597.52" y2="30.73" xlink:href="#linear-gradient"/>
    <linearGradient id="linear-gradient-3" x1="303.12" y1="155.09" x2="597.52" y2="155.09" xlink:href="#linear-gradient"/>
    <linearGradient id="linear-gradient-4" x1="303.12" y1="279.02" x2="597.52" y2="279.02" xlink:href="#linear-gradient"/>
  </defs>
  <path class="cls-4" d="m507.03,57.65v136.81c0,74.42-28,115.29-85.37,115.29h-26.61c-67.75,0-91.94-41.72-91.94-86.9,0-35.27,12.79-51.62,36.29-51.62,21.08,0,29.72,12.9,34.91,32.69,4.84,18.07,13.48,25.38,24.19,25.38,14.86,0,21.78-13.76,21.78-37.85V57.65c0-42.16,11.75-57.65,39.74-57.65h7.26c28,0,39.75,15.49,39.75,57.65Z"/>
  <path class="cls-3" d="m507.03,57.65v136.81c0,74.42-28,115.29-85.37,115.29h-26.61c-67.75,0-91.94-41.72-91.94-86.9,0-35.27,12.79-51.62,36.29-51.62,21.08,0,29.72,12.9,34.91,32.69,4.84,18.07,13.48,25.38,24.19,25.38,14.86,0,21.78-13.76,21.78-37.85V57.65c0-42.16,11.75-57.65,39.74-57.65h7.26c28,0,39.75,15.49,39.75,57.65Z"/>
  <path class="cls-4" d="m594.42,30.73c0,16.97-13.75,30.73-30.72,30.73s-30.73-13.76-30.73-30.73,13.76-30.73,30.73-30.73,30.72,13.76,30.72,30.73Z"/>
  <path class="cls-1" d="m594.42,30.73c0,16.97-13.75,30.73-30.72,30.73s-30.73-13.76-30.73-30.73,13.76-30.73,30.73-30.73,30.72,13.76,30.72,30.73Z"/>
  <path class="cls-4" d="m594.42,155.09c0,16.97-13.75,30.73-30.72,30.73s-30.73-13.76-30.73-30.73,13.76-30.73,30.73-30.73,30.72,13.76,30.72,30.73Z"/>
  <path class="cls-2" d="m594.42,155.09c0,16.97-13.75,30.73-30.72,30.73s-30.73-13.76-30.73-30.73,13.76-30.73,30.73-30.73,30.72,13.76,30.72,30.73Z"/>
  <path class="cls-4" d="m594.42,279.03c0,16.97-13.75,30.72-30.72,30.72s-30.73-13.75-30.73-30.72,13.76-30.73,30.73-30.73,30.72,13.76,30.72,30.73Z"/>
  <path class="cls-5" d="m594.42,279.03c0,16.97-13.75,30.72-30.72,30.72s-30.73-13.75-30.73-30.72,13.76-30.73,30.73-30.73,30.72,13.76,30.72,30.73Z"/>
</svg>
