<svg width="22" height="21" viewBox="0 0 22 21" fill="none" xmlns="http://www.w3.org/2000/svg">
<path d="M16.9556 0.667969C19.68 0.667969 21.8877 2.87568 21.8877 5.6001V9.12305C21.8877 9.51218 21.5722 9.82764 21.1831 9.82764C20.794 9.82764 20.4785 9.51218 20.4785 9.12305V5.6001C20.4785 3.65443 18.9012 2.07715 16.9556 2.07715C15.0099 2.07715 13.4326 3.65443 13.4326 5.6001V8.41846C14.9892 8.41846 16.251 9.68028 16.251 11.2368V17.5781C16.251 19.1347 14.9892 20.3965 13.4326 20.3965H3.56836C2.01182 20.3965 0.75 19.1347 0.75 17.5781V11.2368C0.75 9.68028 2.01182 8.41846 3.56836 8.41846H12.0234V5.6001C12.0234 2.87568 14.2312 0.667969 16.9556 0.667969Z" fill="#E47B7A"/>
</svg>
