<?xml version="1.0" encoding="UTF-8"?>
<svg id="Layer_1" data-name="Layer 1" xmlns="http://www.w3.org/2000/svg" xmlns:xlink="http://www.w3.org/1999/xlink" viewBox="0 0 884.76 317.21">
  <defs>
    <style>
      .cls-1 {
        fill: url(#linear-gradient-2);
      }

      .cls-2 {
        fill: #010001;
      }

      .cls-3 {
        fill: url(#linear-gradient-6);
      }

      .cls-4 {
        fill: url(#linear-gradient-5);
      }

      .cls-5 {
        fill: url(#linear-gradient-7);
      }

      .cls-6 {
        fill: url(#linear-gradient-3);
      }

      .cls-7 {
        fill: url(#linear-gradient);
      }

      .cls-8 {
        fill: url(#linear-gradient-4);
      }

      .cls-9 {
        fill: url(#linear-gradient-8);
      }
    </style>
    <linearGradient id="linear-gradient" x1="-.05" y1="286.46" x2="884.76" y2="286.46" gradientUnits="userSpaceOnUse">
      <stop offset="0" stop-color="#ef3b39"/>
      <stop offset=".46" stop-color="#734e9f"/>
      <stop offset="1" stop-color="#26a7df"/>
    </linearGradient>
    <linearGradient id="linear-gradient-2" y1="158.99" y2="158.99" xlink:href="#linear-gradient"/>
    <linearGradient id="linear-gradient-3" y1="31.52" y2="31.52" xlink:href="#linear-gradient"/>
    <linearGradient id="linear-gradient-4" x1="0" y1="158.39" x2="884.75" y2="158.39" xlink:href="#linear-gradient"/>
    <linearGradient id="linear-gradient-5" x1="0" y1="158.39" x2="884.77" y2="158.39" xlink:href="#linear-gradient"/>
    <linearGradient id="linear-gradient-6" x1="-.02" y1="158.99" x2="884.76" y2="158.99" xlink:href="#linear-gradient"/>
    <linearGradient id="linear-gradient-7" x1=".03" y1="71.5" x2="884.75" y2="71.5" xlink:href="#linear-gradient"/>
    <linearGradient id="linear-gradient-8" x1=".03" y1="246.91" x2="884.75" y2="246.91" xlink:href="#linear-gradient"/>
  </defs>
  <path class="cls-2" d="m884.76,286.46c0,8.34-3.41,15.92-8.91,21.42s-13.08,8.91-21.43,8.91-15.92-3.41-21.42-8.91-8.91-13.08-8.91-21.42c0-16.68,13.65-30.33,30.33-30.33,8.35,0,15.93,3.41,21.43,8.91s8.91,13.08,8.91,21.42Z"/>
  <path class="cls-7" d="m884.76,286.46c0,8.34-3.41,15.92-8.91,21.42s-13.08,8.91-21.43,8.91-15.92-3.41-21.42-8.91-8.91-13.08-8.91-21.42c0-16.68,13.65-30.33,30.33-30.33,8.35,0,15.93,3.41,21.43,8.91s8.91,13.08,8.91,21.42Z"/>
  <path class="cls-2" d="m884.76,158.99c0,8.34-3.41,15.92-8.91,21.42s-13.08,8.91-21.43,8.91-15.92-3.41-21.42-8.91-8.91-13.08-8.91-21.42c0-16.68,13.65-30.33,30.33-30.33,8.35,0,15.93,3.41,21.43,8.91s8.91,13.08,8.91,21.42Z"/>
  <path class="cls-1" d="m884.76,158.99c0,8.34-3.41,15.92-8.91,21.42s-13.08,8.91-21.43,8.91-15.92-3.41-21.42-8.91-8.91-13.08-8.91-21.42c0-16.68,13.65-30.33,30.33-30.33,8.35,0,15.93,3.41,21.43,8.91s8.91,13.08,8.91,21.42Z"/>
  <path class="cls-2" d="m884.76,31.52c0,8.34-3.41,15.92-8.91,21.42s-13.08,8.91-21.43,8.91-15.92-3.41-21.42-8.91-8.91-13.08-8.91-21.42c0-16.68,13.65-30.33,30.33-30.33,8.35,0,15.93,3.41,21.43,8.91s8.91,13.08,8.91,21.42Z"/>
  <path class="cls-6" d="m884.76,31.52c0,8.34-3.41,15.92-8.91,21.42s-13.08,8.91-21.43,8.91-15.92-3.41-21.42-8.91-8.91-13.08-8.91-21.42c0-16.68,13.65-30.33,30.33-30.33,8.35,0,15.93,3.41,21.43,8.91s8.91,13.08,8.91,21.42Z"/>
  <path class="cls-2" d="m413.95,280.46c-1.2,20.58-15.04,36.33-31.35,36.33h-123.26c-28.16,0-39.98-15.84-39.98-58.96V58.96c0-43.12,11.82-58.96,39.98-58.96h123.26c16.31,0,30.15,15.76,31.35,36.34,1.55,26.41-11.67,45.06-31.87,45.06h-58.13c-9.57,0-17.32,9.81-17.32,21.92,0,11.46,7.34,20.76,16.4,20.76h57.99c13.86,0,25.55,13.46,26.51,30.96,1.22,22.5-9.82,38.12-27.03,38.12h-57.86c-4.42,0-8.42,2.27-11.32,5.93-2.9,3.67-4.69,8.73-4.69,14.33,0,12.14,7.77,21.97,17.36,21.97h58.09c20.2,0,33.42,18.65,31.87,45.07Z"/>
  <path class="cls-8" d="m413.95,280.46c-1.2,20.58-15.04,36.33-31.35,36.33h-123.26c-28.16,0-39.98-15.84-39.98-58.96V58.96c0-43.12,11.82-58.96,39.98-58.96h123.26c16.31,0,30.15,15.76,31.35,36.34,1.55,26.41-11.67,45.06-31.87,45.06h-58.13c-9.57,0-17.32,9.81-17.32,21.92,0,11.46,7.34,20.76,16.4,20.76h57.99c13.86,0,25.55,13.46,26.51,30.96,1.22,22.5-9.82,38.12-27.03,38.12h-57.86c-4.42,0-8.42,2.27-11.32,5.93-2.9,3.67-4.69,8.73-4.69,14.33,0,12.14,7.77,21.97,17.36,21.97h58.09c20.2,0,33.42,18.65,31.87,45.07Z"/>
  <path class="cls-2" d="m205.15,58.96v139.92c0,76.11-28.17,117.91-85.89,117.91h-26.77C24.34,316.79,0,274.11,0,227.91c0-36.08,12.86-52.81,36.51-52.81,21.21,0,29.9,13.21,35.12,33.44,4.86,18.49,13.56,25.97,24.33,25.97,14.96,0,21.91-14.08,21.91-38.71V58.96C117.87,15.84,129.69,0,157.86,0h7.3c28.16,0,39.99,15.84,39.99,58.96Z"/>
  <path class="cls-4" d="m205.15,58.96v139.92c0,76.11-28.17,117.91-85.89,117.91h-26.77C24.34,316.79,0,274.11,0,227.91c0-36.08,12.86-52.81,36.51-52.81,21.21,0,29.9,13.21,35.12,33.44,4.86,18.49,13.56,25.97,24.33,25.97,14.96,0,21.91-14.08,21.91-38.71V58.96C117.87,15.84,129.69,0,157.86,0h7.3c28.16,0,39.99,15.84,39.99,58.96Z"/>
  <path class="cls-2" d="m647.69,59.92v199.88c0,42.95-11.83,56.98-39.99,56.98h-14.95c-16.69,0-26.43-8.77-33.38-23.67l-62.94-133.26v98.19c0,15.34-.69,28.93-4.52,38.57-5.21,13.16-15.64,20.17-26.77,20.17h-5.56c-11.13,0-21.56-7.01-26.78-20.17-3.82-9.64-4.52-23.22-4.52-38.57V59.92c0-42.95,11.83-58.73,39.99-58.73h26.08c16.69,0,25.38,5.7,34.07,23.67l53.9,110.01V59.92c0-15.34.69-28.93,4.52-38.58,5.21-13.15,15.64-20.16,26.77-20.16h2.78c11.13,0,21.56,7.01,26.78,20.16,3.82,9.65,4.52,23.23,4.52,38.58Z"/>
  <path class="cls-3" d="m647.69,59.92v199.88c0,42.95-11.83,56.98-39.99,56.98h-14.95c-16.69,0-26.43-8.77-33.38-23.67l-62.94-133.26v98.19c0,15.34-.69,28.93-4.52,38.57-5.21,13.16-15.64,20.17-26.77,20.17h-5.56c-11.13,0-21.56-7.01-26.78-20.17-3.82-9.64-4.52-23.22-4.52-38.57V59.92c0-42.95,11.83-58.73,39.99-58.73h26.08c16.69,0,25.38,5.7,34.07,23.67l53.9,110.01V59.92c0-15.34.69-28.93,4.52-38.58,5.21-13.15,15.64-20.16,26.77-20.16h2.78c11.13,0,21.56,7.01,26.78,20.16,3.82,9.65,4.52,23.23,4.52,38.58Z"/>
  <path class="cls-2" d="m778.76,78.46c-21.85,0-24.03,18.3-42.6,18.3-10.92,0-16.65-9.83-16.93-26.49h61.98c13.66,0,19.11-6,19.11-18.29,0-27.31-26.76-50.79-64.43-50.79-42.32,0-73.99,28.94-73.99,70.17s31.94,70.45,73.44,70.45c32.77,0,63.62-15.84,63.62-43.96,0-9.28-6.28-19.39-20.2-19.39Zm-45.33-41.23c7.64,0,12.01,7.37,12.83,16.39h-25.94c.82-9.02,5.47-16.39,13.11-16.39Z"/>
  <path class="cls-5" d="m778.76,78.46c-21.85,0-24.03,18.3-42.6,18.3-10.92,0-16.65-9.83-16.93-26.49h61.98c13.66,0,19.11-6,19.11-18.29,0-27.31-26.76-50.79-64.43-50.79-42.32,0-73.99,28.94-73.99,70.17s31.94,70.45,73.44,70.45c32.77,0,63.62-15.84,63.62-43.96,0-9.28-6.28-19.39-20.2-19.39Zm-45.33-41.23c7.64,0,12.01,7.37,12.83,16.39h-25.94c.82-9.02,5.47-16.39,13.11-16.39Z"/>
  <path class="cls-2" d="m778.76,253.87c-21.85,0-24.03,18.29-42.6,18.29-10.92,0-16.65-9.83-16.93-26.48h61.98c13.66,0,19.11-6.01,19.11-18.3,0-27.3-26.76-50.78-64.43-50.78-42.32,0-73.99,28.94-73.99,70.17s31.94,70.44,73.44,70.44c32.77,0,63.62-15.83,63.62-43.95,0-9.29-6.28-19.39-20.2-19.39Zm-45.33-41.23c7.64,0,12.01,7.37,12.83,16.38h-25.94c.82-9.01,5.47-16.38,13.11-16.38Z"/>
  <path class="cls-9" d="m778.76,253.87c-21.85,0-24.03,18.29-42.6,18.29-10.92,0-16.65-9.83-16.93-26.48h61.98c13.66,0,19.11-6.01,19.11-18.3,0-27.3-26.76-50.78-64.43-50.78-42.32,0-73.99,28.94-73.99,70.17s31.94,70.44,73.44,70.44c32.77,0,63.62-15.83,63.62-43.95,0-9.29-6.28-19.39-20.2-19.39Zm-45.33-41.23c7.64,0,12.01,7.37,12.83,16.38h-25.94c.82-9.01,5.47-16.38,13.11-16.38Z"/>
</svg>